<svg id="svg" xmlns="http://www.w3.org/2000/svg" xmlns:xlink="http://www.w3.org/1999/xlink" width="400" height="107.84313725490196" viewBox="0, 0, 400,107.84313725490196">
<style>
        #path0 { fill: #000000; }

        @media (prefers-color-scheme: dark) {
            #path0 { fill: #FFFFFF; }
        }
</style>
<g id="svgg"><path id="path0" d="M25.829 3.677 C 19.034 5.545,13.203 10.369,10.128 16.667 C 7.439 22.175,7.297 24.801,7.458 66.176 L 7.598 102.206 16.176 102.206 L 24.755 102.206 24.883 82.235 L 25.011 62.265 46.697 62.137 L 68.382 62.010 68.382 53.431 L 68.382 44.853 46.691 44.725 L 25.000 44.598 25.000 35.366 C 25.000 19.197,23.742 19.932,51.961 19.608 L 73.284 19.363 73.419 11.152 L 73.553 2.941 50.870 2.985 C 33.694 3.018,27.614 3.186,25.829 3.677 M84.804 11.275 L 84.804 19.631 93.260 19.497 L 101.716 19.363 101.716 11.275 L 101.716 3.186 93.260 3.052 L 84.804 2.918 84.804 11.275 M333.333 54.657 L 333.333 104.412 342.157 104.412 L 350.980 104.412 350.980 98.262 L 350.980 92.113 354.764 87.478 C 356.845 84.929,358.688 82.843,358.860 82.843 C 359.108 82.843,373.264 99.432,376.480 103.491 C 377.181 104.375,377.887 104.423,388.541 104.299 L 399.857 104.167 385.004 87.255 C 376.834 77.953,370.138 70.123,370.124 69.853 C 370.110 69.583,376.469 61.863,384.256 52.696 C 392.042 43.529,398.258 35.860,398.069 35.652 C 397.880 35.445,392.784 35.334,386.743 35.407 L 375.761 35.539 363.792 49.755 C 357.209 57.574,351.633 64.044,351.402 64.134 C 351.170 64.224,350.980 50.962,350.980 34.600 L 350.980 4.902 342.157 4.902 L 333.333 4.902 333.333 54.657 M117.647 49.911 C 117.647 88.825,117.601 88.468,123.582 95.417 C 129.288 102.045,133.396 103.570,146.213 103.821 L 155.907 104.011 155.772 96.000 L 155.637 87.990 148.775 87.729 C 135.658 87.229,134.811 85.825,134.807 64.583 L 134.804 50.490 146.324 50.490 L 157.843 50.490 157.843 41.921 L 157.843 33.351 146.446 33.220 L 135.049 33.088 134.915 24.877 L 134.780 16.667 126.214 16.667 L 117.647 16.667 117.647 49.911 M84.804 65.441 L 84.804 102.474 93.260 102.340 L 101.716 102.206 101.716 65.441 L 101.716 28.676 93.260 28.542 L 84.804 28.408 84.804 65.441 M195.343 30.107 C 173.183 35.245,160.184 56.342,166.180 77.438 C 174.973 108.377,216.646 114.618,234.230 87.628 C 236.002 84.909,239.216 77.391,239.216 75.966 C 239.216 75.674,235.455 75.490,229.490 75.490 L 219.765 75.490 219.163 76.838 C 210.707 95.773,183.454 88.164,183.611 66.912 C 183.762 46.525,208.834 39.189,218.688 56.649 L 220.192 59.314 229.765 59.314 L 239.338 59.314 239.041 57.827 C 235.462 39.934,213.380 25.926,195.343 30.107 M276.395 30.412 C 249.344 38.133,239.153 70.594,257.272 91.323 C 280.303 117.673,323.529 101.746,323.529 66.912 C 323.529 42.488,299.441 23.835,276.395 30.412 M289.804 47.610 C 299.625 49.696,306.743 59.200,305.659 68.781 C 303.633 86.687,280.818 92.973,270.144 78.565 C 259.480 64.172,272.353 43.904,289.804 47.610 " stroke="none" fill="#000000" fill-rule="evenodd"></path></g></svg>